<svg width="16" height="16" viewBox="0 0 16 16" fill="none" xmlns="http://www.w3.org/2000/svg">
    <path fill-rule="evenodd" clip-rule="evenodd" d="M1 2a1.013 1.013 0 0 1 .181-.575 1.014 1.014 0 0 1 .052-.067A.998.998 0 0 1 2 1h6a1 1 0 0 1 0 2H3v10h5a1 1 0 1 1 0 2H2a1 1 0 0 1-1-1V2z" fill="#181818"/>
    <path fill-rule="evenodd" clip-rule="evenodd" d="M11.879 11.536a1 1 0 0 1-1.415-1.415L11.586 9H6a1 1 0 0 1 0-2h5.586l-1.122-1.121a1 1 0 0 1 1.415-1.415L14.7 7.287A1.003 1.003 0 0 1 15 8v.008a1.002 1.002 0 0 1-.293.7l-2.828 2.828z" fill="#181818"/>
</svg>
