<svg width="16" height="16" viewBox="0 0 16 16" fill="none" xmlns="http://www.w3.org/2000/svg">
    <rect x="15" y="2" width="2" height="14" rx="1" transform="rotate(90 15 2)" fill="#181818"/>
    <rect x="6" y="7" width="2" height="5" rx="1" transform="rotate(90 6 7)" fill="#181818"/>
    <rect x="5" y="12" width="2" height="4" rx="1" transform="rotate(90 5 12)" fill="#181818"/>
    <path fill-rule="evenodd" clip-rule="evenodd" d="M9.121 7.293a1 1 0 1 1 1.415 1.414L9.414 9.828H14a1 1 0 1 1 0 2H9.414l1.122 1.122a1 1 0 0 1-1.415 1.414L6.3 11.542a1.012 1.012 0 0 1-.21-.3.996.996 0 0 1-.089-.414v-.008a.998.998 0 0 1 .293-.699L9.12 7.293z" fill="#181818"/>
</svg>
