<svg width="16" height="16" viewBox="0 0 16 16" fill="none" xmlns="http://www.w3.org/2000/svg">
    <g clip-path="url(#qvy2iwfrwa)">
        <path fill-rule="evenodd" clip-rule="evenodd" d="M1 2a1 1 0 0 1 1-1h9.667a1 1 0 0 1 1 1v12a1 1 0 0 1-1 1H2a1 1 0 0 1-1-1V2zm3 2h6v1H4V4zm6 3H4v1h6V7z" fill="#fff"/>
        <mask id="mopqihhxbb" maskUnits="userSpaceOnUse" x="6" y="6" width="12" height="12" fill="#000">
            <path fill="#fff" d="M6 6h12v12H6z"/>
            <path fill-rule="evenodd" clip-rule="evenodd" d="M13 8.5a.5.5 0 0 0-.5-.5h-1a.5.5 0 0 0-.5.5v2a.5.5 0 0 1-.5.5h-2a.5.5 0 0 0-.5.5v1a.5.5 0 0 0 .5.5h2a.5.5 0 0 1 .5.5v2a.5.5 0 0 0 .5.5h1a.5.5 0 0 0 .5-.5v-2a.5.5 0 0 1 .5-.5h2a.5.5 0 0 0 .5-.5v-1a.5.5 0 0 0-.5-.5h-2a.5.5 0 0 1-.5-.5v-2z"/>
        </mask>
        <path fill-rule="evenodd" clip-rule="evenodd" d="M13 8.5a.5.5 0 0 0-.5-.5h-1a.5.5 0 0 0-.5.5v2a.5.5 0 0 1-.5.5h-2a.5.5 0 0 0-.5.5v1a.5.5 0 0 0 .5.5h2a.5.5 0 0 1 .5.5v2a.5.5 0 0 0 .5.5h1a.5.5 0 0 0 .5-.5v-2a.5.5 0 0 1 .5-.5h2a.5.5 0 0 0 .5-.5v-1a.5.5 0 0 0-.5-.5h-2a.5.5 0 0 1-.5-.5v-2z" fill="#fff"/>
        <path d="M11.5 10h1V6h-1v4zm1.5.5v-2H9v2h4zM8.5 13h2V9h-2v4zm1.5-.5v-1H6v1h4zm.5-1.5h-2v4h2v-4zm2.5 4.5v-2H9v2h4zm-.5-1.5h-1v4h1v-4zm-1.5-.5v2h4v-2h-4zm4.5-2.5h-2v4h2v-4zm-1.5.5v1h4v-1h-4zm-.5 1.5h2V9h-2v4zM11 8.5v2h4v-2h-4zm2.5.5a1.5 1.5 0 0 1 1.5 1.5h-4a2.5 2.5 0 0 0 2.5 2.5V9zm4.5 2.5A2.5 2.5 0 0 0 15.5 9v4a1.5 1.5 0 0 1-1.5-1.5h4zM15.5 15a2.5 2.5 0 0 0 2.5-2.5h-4a1.5 1.5 0 0 1 1.5-1.5v4zm-.5-1.5a1.5 1.5 0 0 1-1.5 1.5v-4a2.5 2.5 0 0 0-2.5 2.5h4zM12.5 18a2.5 2.5 0 0 0 2.5-2.5h-4a1.5 1.5 0 0 1 1.5-1.5v4zM9 15.5a2.5 2.5 0 0 0 2.5 2.5v-4a1.5 1.5 0 0 1 1.5 1.5H9zm1.5-.5A1.5 1.5 0 0 1 9 13.5h4a2.5 2.5 0 0 0-2.5-2.5v4zM6 12.5A2.5 2.5 0 0 0 8.5 15v-4a1.5 1.5 0 0 1 1.5 1.5H6zM8.5 9A2.5 2.5 0 0 0 6 11.5h4A1.5 1.5 0 0 1 8.5 13V9zm.5 1.5A1.5 1.5 0 0 1 10.5 9v4a2.5 2.5 0 0 0 2.5-2.5H9zm3.5-.5A1.5 1.5 0 0 1 11 8.5h4A2.5 2.5 0 0 0 12.5 6v4zm-1-4A2.5 2.5 0 0 0 9 8.5h4a1.5 1.5 0 0 1-1.5 1.5V6z" fill="#181818" mask="url(#mopqihhxbb)"/>
    </g>
    <defs>
        <clipPath id="qvy2iwfrwa">
            <path fill="#fff" d="M0 0h16v16H0z"/>
        </clipPath>
    </defs>
</svg>
