<svg width="17" height="17" viewBox="0 0 17 17" fill="none" xmlns="http://www.w3.org/2000/svg">
    <path fill-rule="evenodd" clip-rule="evenodd" d="M1 2a1 1 0 0 1 1-1h9.667a1 1 0 0 1 1 1v12a1 1 0 0 1-1 1H2a1 1 0 0 1-1-1V2zm3 2h6v1H4V4zm6 3H4v1h6V7z" fill="#fff"/>
    <circle cx="10.657" cy="10.657" r="5.435" transform="rotate(45 10.657 10.657)" fill="#181818"/>
    <circle cx="10.657" cy="10.657" r="3" transform="rotate(45 10.657 10.657)" fill="#181818" stroke="#fff" stroke-width="2"/>
    <rect x="13.486" y="12.778" width="3" height="1" rx=".5" transform="rotate(45 13.486 12.778)" fill="#6F747D" stroke="#fff"/>
</svg>
