<svg width="16" height="17" viewBox="0 0 16 17" fill="none" xmlns="http://www.w3.org/2000/svg">
    <path fill-rule="evenodd" clip-rule="evenodd" d="M3 1.5a1 1 0 0 0-1 1v12a1 1 0 0 0 1 1h10a1 1 0 0 0 1-1v-12a1 1 0 0 0-1-1H3zm2.25 3a.25.25 0 0 0-.25.25v.5c0 .138.112.25.25.25h5.5a.25.25 0 0 0 .25-.25v-.5a.25.25 0 0 0-.25-.25h-5.5zM5 7.75a.25.25 0 0 1 .25-.25h5.5a.25.25 0 0 1 .25.25v.5a.25.25 0 0 1-.25.25h-5.5A.25.25 0 0 1 5 8.25v-.5zm.25 2.75a.25.25 0 0 0-.25.25v.5c0 .138.112.25.25.25h2.5a.25.25 0 0 0 .25-.25v-.5a.25.25 0 0 0-.25-.25h-2.5z" fill="#fff"/>
</svg>
