<svg width="40" height="40" viewBox="0 0 40 40" fill="none" xmlns="http://www.w3.org/2000/svg">
    <path d="M36 28a3 3 0 0 1-3 3H7a3 3 0 0 1-3-3V11a3 3 0 0 1 3-3h26a3 3 0 0 1 3 3v17z" fill="#D5D9F9"/>
    <path d="M4 9a3 3 0 0 1 3-3h5.558a3 3 0 0 1 2.343 1.126l2.198 2.748A3 3 0 0 0 19.442 11H33a3 3 0 0 1 3 3v17a3 3 0 0 1-3 3H7a3 3 0 0 1-3-3V9z" fill="#EBEDFC"/>
    <path fill-rule="evenodd" clip-rule="evenodd" d="M20.889 15.237c.024.02.046.04.068.063l4.235 4.236a1 1 0 1 1-1.414 1.414l-2.535-2.536V28a1 1 0 1 1-2 0v-9.586l-2.536 2.536a1 1 0 0 1-1.414-1.414l4.237-4.238a1.049 1.049 0 0 1 .282-.201.996.996 0 0 1 1.077.14z" fill="#7D88EB"/>
</svg>
