<svg width="16" height="16" viewBox="0 0 16 16" fill="none" xmlns="http://www.w3.org/2000/svg">
    <path fill-rule="evenodd" clip-rule="evenodd" d="M7.12 4a.95.95 0 0 0-.95.95v5.694L4.93 9.389c-.474-.478-1.297-.481-1.78-.006a.516.516 0 0 0-.078.66L5.73 14.09A2.876 2.876 0 0 0 8.44 16h1.916a2.875 2.875 0 0 0 2.857-3.207V9.008a.821.821 0 1 0-1.643 0v1.51a2.967 2.967 0 0 0-.077-.035V8.485a.821.821 0 0 0-1.643 0v1.765h-.077V8.485a.821.821 0 1 0-1.643 0v1.782l-.06.007V4.95A.95.95 0 0 0 7.12 4z" fill="#D2D4D9"/>
    <circle cx="7" cy="4" r="2.5" stroke="#D2D4D9"/>
</svg>
