<svg width="16" height="16" viewBox="0 0 16 16" fill="none" xmlns="http://www.w3.org/2000/svg">
    <path fill-rule="evenodd" clip-rule="evenodd" d="M5.184 1.95a.95.95 0 0 1 1.9 0v5.324l.06-.008V5.485a.821.821 0 1 1 1.643 0v1.526a2 2 0 0 0-1.2 3.403l.706.707-.707.707c-.32.32-.51.723-.567 1.14a2.879 2.879 0 0 1-2.275-1.878L2.086 7.044a.516.516 0 0 1 .077-.661c.484-.475 1.307-.472 1.78.006l1.24 1.255V1.95zm7.042 5.327V6.008a.821.821 0 0 0-1.643 0v1.51a2.698 2.698 0 0 0-.077-.035V5.485a.821.821 0 0 0-1.643 0v1.52a1.995 1.995 0 0 1 1.551.58l.707.708.707-.707c.122-.122.256-.225.398-.309zM8.03 13a.996.996 0 0 1 .263-.464l1.414-1.415-1.414-1.414a1 1 0 0 1 1.414-1.414l1.414 1.414 1.105-1.105v1.192A2.875 2.875 0 0 1 9.37 13H8.03z" fill="#fff"/>
    <path fill-rule="evenodd" clip-rule="evenodd" d="M9.707 8.293a1 1 0 0 0-1.414 1.414l1.414 1.414-1.414 1.415a1 1 0 1 0 1.414 1.414l1.414-1.414 1.415 1.414a1 1 0 1 0 1.414-1.414l-1.414-1.415 1.414-1.414a1 1 0 0 0-1.414-1.414L11.12 9.707 9.707 8.293z" fill="#fff"/>
</svg>
