<svg width="16" height="17" viewBox="0 0 16 17" fill="none" xmlns="http://www.w3.org/2000/svg">
    <path d="M15 12c0 .506-.324 1.107-1.148 1.631-.812.517-1.994.869-3.352.869-1.358 0-2.54-.352-3.352-.869C6.324 13.107 6 12.506 6 12s.324-1.107 1.148-1.631C7.96 9.852 9.142 9.5 10.5 9.5c1.358 0 2.54.352 3.352.869C14.676 10.893 15 11.494 15 12z" stroke="#6F747D" stroke-width="2"/>
    <path d="M4 14.5a1 1 0 0 1-1-1v-9a2 2 0 0 1 2-2h6a2 2 0 0 1 2 2v3" stroke="#6F747D" stroke-width="2"/>
    <circle cx="10.5" cy="12" r="1.5" fill="#6F747D"/>
</svg>
