<svg width="16" height="16" viewBox="0 0 16 16" fill="none" xmlns="http://www.w3.org/2000/svg">
    <path d="M15 11.5c0 .506-.324 1.107-1.148 1.631-.812.517-1.994.869-3.352.869-1.358 0-2.54-.352-3.352-.869C6.324 12.607 6 12.006 6 11.5s.324-1.107 1.148-1.631C7.96 9.352 9.142 9 10.5 9c1.358 0 2.54.352 3.352.869.824.524 1.148 1.125 1.148 1.631z" stroke="#515FE4" stroke-width="2"/>
    <path d="M4 14a1 1 0 0 1-1-1V4a2 2 0 0 1 2-2h6a2 2 0 0 1 2 2v3" stroke="#515FE4" stroke-width="2"/>
    <circle cx="10.5" cy="11.5" r="1.5" fill="#515FE4"/>
</svg>
