<svg width="24" height="24" viewBox="0 0 24 24" fill="none" xmlns="http://www.w3.org/2000/svg">
    <path fill-rule="evenodd" clip-rule="evenodd" d="M10 3a1 1 0 0 1 1-1h2a1 1 0 0 1 1 1v18a1 1 0 0 1-1 1h-2a1 1 0 0 1-1-1V3zM2 14a1 1 0 0 1 1-1h2a1 1 0 0 1 1 1v7a1 1 0 0 1-1 1H3a1 1 0 0 1-1-1v-7zm17-6a1 1 0 0 0-1 1v12a1 1 0 0 0 1 1h2a1 1 0 0 0 1-1V9a1 1 0 0 0-1-1h-2z" fill="url(#1o3s1ep5fa)"/>
    <defs>
        <linearGradient id="1o3s1ep5fa" x1="2" y1="2" x2="25.5" y2="32" gradientUnits="userSpaceOnUse">
            <stop stop-color="#6F747D"/>
            <stop offset="1" stop-color="#D2D4D9"/>
        </linearGradient>
    </defs>
</svg>
