<svg width="16" height="17" viewBox="0 0 16 17" fill="none" xmlns="http://www.w3.org/2000/svg">
    <circle cx="8" cy="8.5" r="7" fill="#6F747D"/>
    <path d="M7.31 10.334c.017-1.208.331-1.576.878-1.953.377-.251.664-.57.664-1.044 0-.522-.386-.86-.861-.87-.44.01-.852.31-.879.928H6c.036-1.257.915-1.905 1.991-1.895 1.193-.01 2 .706 2.009 1.818-.009.773-.359 1.276-.933 1.643-.502.33-.717.658-.717 1.373v.078H7.31v-.078zm-.144 1.431c0-.396.314-.725.682-.735.367.01.681.339.681.735 0 .406-.314.735-.681.735-.368 0-.682-.329-.682-.735z" fill="#fff"/>
</svg>
