<svg width="24" height="24" viewBox="0 0 24 24" fill="none" xmlns="http://www.w3.org/2000/svg">
    <mask id="e7exjhk5da" style="mask-type:alpha" maskUnits="userSpaceOnUse" x="3" y="8" width="18" height="6">
        <path d="M3 8.215h18v5H3v-5z" fill="#D9D9D9"/>
    </mask>
    <g mask="url(#e7exjhk5da)">
        <path d="m13.5 5.63 2.262 3.3-5.348 7.799-2.262-3.299 5.348-7.8z" fill="url(#ip9qd1pwkb)"/>
        <path d="M6.298 4.586 8.56 7.885l-5.348 7.8-2.262-3.3 5.348-7.8z" fill="url(#bmjtchw9hc)"/>
        <path d="m21 5.63 2.262 3.3-5.348 7.799-2.262-3.299L21 5.63z" fill="url(#xswdlto04d)"/>
    </g>
    <path fill-rule="evenodd" clip-rule="evenodd" d="M6.6 7.948 20 4.572c.536-.135.877-.682.763-1.223l-.29-1.37a.955.955 0 0 0-1.177-.735L3.266 5.283a1.048 1.048 0 0 0-.763 1.222L3 8.855l.028-.007v11.1a1 1 0 0 0 1 1h16a1 1 0 0 0 1-1v-12H6.6zm-2.572 1h16v4h-16v-4z" fill="url(#fzczsbfufe)"/>
    <defs>
        <linearGradient id="ip9qd1pwkb" x1="4.5" y1="8.5" x2="9.474" y2="18.922" gradientUnits="userSpaceOnUse">
            <stop stop-color="#6F747D"/>
            <stop offset="1" stop-color="#9C9FA6"/>
        </linearGradient>
        <linearGradient id="bmjtchw9hc" x1=".5" y1="9.5" x2=".056" y2="15.828" gradientUnits="userSpaceOnUse">
            <stop stop-color="#6F747D"/>
            <stop offset="1" stop-color="#9C9FA6"/>
        </linearGradient>
        <linearGradient id="xswdlto04d" x1="8.5" y1="8" x2="13.328" y2="16.944" gradientUnits="userSpaceOnUse">
            <stop stop-color="#6F747D"/>
            <stop offset="1" stop-color="#9C9FA6"/>
        </linearGradient>
        <linearGradient id="fzczsbfufe" x1="12.5" y1="5.5" x2="20.5" y2="25.5" gradientUnits="userSpaceOnUse">
            <stop stop-color="#6F747D"/>
            <stop offset="1" stop-color="#D2D4D9"/>
        </linearGradient>
    </defs>
</svg>
