<svg width="16" height="17" viewBox="0 0 16 17" fill="none" xmlns="http://www.w3.org/2000/svg">
    <path fill-rule="evenodd" clip-rule="evenodd" d="M6 2.5a1 1 0 0 1 1-1h2a1 1 0 0 1 1 1v1.416c.345.15.67.34.97.56l1.226-.708a1 1 0 0 1 1.366.366l1 1.732a1 1 0 0 1-.366 1.366l-1.227.709a5.04 5.04 0 0 1 0 1.119l1.227.708a1 1 0 0 1 .366 1.366l-1 1.732a1 1 0 0 1-1.366.366l-1.227-.708a5 5 0 0 1-.969.56V14.5a1 1 0 0 1-1 1H7a1 1 0 0 1-1-1v-1.416c-.345-.15-.67-.34-.969-.56l-1.227.708a1 1 0 0 1-1.366-.366l-1-1.732a1 1 0 0 1 .366-1.366L3.03 9.06a5.054 5.054 0 0 1 0-1.12l-1.227-.708a1 1 0 0 1-.366-1.366l1-1.732a1 1 0 0 1 1.366-.366l1.227.709c.3-.222.624-.41.97-.561V2.5zm2 8a2 2 0 1 0 0-4 2 2 0 0 0 0 4z" fill="#6F747D"/>
</svg>
