<svg width="24" height="24" viewBox="0 0 24 24" fill="none" xmlns="http://www.w3.org/2000/svg">
    <g clip-path="url(#uwmqna0mya)">
        <path fill-rule="evenodd" clip-rule="evenodd" d="M4 19V4h12.286v15H4zM2 3a1 1 0 0 1 1-1h14.286a1 1 0 0 1 1 1v17a1 1 0 0 1-1 1H3a1 1 0 0 1-1-1V3zm5 3h6v2H7V6zm0 4h3.429v2H7v-2z" fill="url(#zedjqus9eb)"/>
        <mask id="hpm6vz6gyd" maskUnits="userSpaceOnUse" x="5.172" y="6.172" width="22.627" height="22.627" fill="#000">
            <path fill="#fff" d="M5.172 6.172h22.627v22.627H5.172z"/>
            <path fill-rule="evenodd" clip-rule="evenodd" d="M15.071 21.071a5 5 0 1 1 4.172-2.243l2.07 2.07a1 1 0 1 1-1.415 1.415l-2.07-2.07a4.977 4.977 0 0 1-2.757.828zm0-2.437a2.563 2.563 0 1 1 0-5.126 2.563 2.563 0 0 1 0 5.126z"/>
        </mask>
        <path fill-rule="evenodd" clip-rule="evenodd" d="M15.071 21.071a5 5 0 1 1 4.172-2.243l2.07 2.07a1 1 0 1 1-1.415 1.415l-2.07-2.07a4.977 4.977 0 0 1-2.757.828zm0-2.437a2.563 2.563 0 1 1 0-5.126 2.563 2.563 0 0 1 0 5.126z" fill="url(#tlvntdp9vc)"/>
        <path d="M10.071 16.071h-2 2zm5-5v-2 2zm5 5h-2 2zm-.828 2.757-1.668-1.104-.902 1.363 1.155 1.156 1.415-1.415zm2.07 2.07-1.415 1.415 1.415-1.415zm-1.415 1.415-1.414 1.414 1.414-1.414zm-2.07-2.07 1.415-1.415-1.156-1.155-1.363.902 1.104 1.668zm-5.32-4.172h2-2zm2.563 2.563v-2 2zm0-5.126v-2 2zm2.563 2.563h2-2zm-9.563 0a7 7 0 0 0 7 7v-4a3 3 0 0 1-3-3h-4zm7-7a7 7 0 0 0-7 7h4a3 3 0 0 1 3-3v-4zm7 7a7 7 0 0 0-7-7v4a3 3 0 0 1 3 3h4zm-1.16 3.862a6.977 6.977 0 0 0 1.16-3.862h-4c0 .614-.183 1.18-.496 1.653l3.335 2.209zm-3.083.31 2.07 2.07 2.829-2.829-2.07-2.07-2.829 2.829zm2.07 2.07a1 1 0 0 1 0-1.415l2.829 2.829a3 3 0 0 0 0-4.243l-2.829 2.829zm0-1.415a1 1 0 0 1 1.415 0l-2.829 2.829a3 3 0 0 0 4.243 0l-2.829-2.829zm1.415 0-2.07-2.07-2.829 2.829 2.07 2.07 2.828-2.829zm-6.242 2.173a6.977 6.977 0 0 0 3.862-1.16l-2.209-3.336a2.976 2.976 0 0 1-1.653.496v4zm-4.563-7a4.563 4.563 0 0 0 4.563 4.563v-4a.563.563 0 0 1-.563-.563h-4zm4.563-4.563a4.563 4.563 0 0 0-4.563 4.563h4c0-.31.252-.563.563-.563v-4zm4.563 4.563a4.563 4.563 0 0 0-4.563-4.563v4c.311 0 .563.252.563.563h4zm-4.563 4.563a4.563 4.563 0 0 0 4.563-4.563h-4a.563.563 0 0 1-.563.563v4z" fill="#F2F4F6" mask="url(#hpm6vz6gyd)"/>
    </g>
    <defs>
        <linearGradient id="zedjqus9eb" x1="8" y1="3" x2="18.5" y2="28" gradientUnits="userSpaceOnUse">
            <stop stop-color="#6F747D"/>
            <stop offset="1" stop-color="#D2D4D9"/>
        </linearGradient>
        <linearGradient id="tlvntdp9vc" x1="18.607" y1="13.28" x2="10.741" y2="26.113" gradientUnits="userSpaceOnUse">
            <stop stop-color="#6F747D"/>
            <stop offset="1" stop-color="#D2D4D9"/>
        </linearGradient>
        <clipPath id="uwmqna0mya">
            <path fill="#fff" d="M0 0h24v24H0z"/>
        </clipPath>
    </defs>
</svg>
