<svg width="25" height="25" viewBox="0 0 25 25" fill="none" xmlns="http://www.w3.org/2000/svg">
    <path fill-rule="evenodd" clip-rule="evenodd" d="M4 19V4h12.286v15H4zM2 3a1 1 0 0 1 1-1h14.286a1 1 0 0 1 1 1v17a1 1 0 0 1-1 1H3a1 1 0 0 1-1-1V3zm11 3H7v2h6V6zm0 4H7v2h6v-2zm-6 4h3.429v2H7v-2z" fill="url(#mcanrprlfa)"/>
    <mask id="64xlg10q8c" maskUnits="userSpaceOnUse" x="11" y="11" width="14" height="14" fill="#000">
        <path fill="#fff" d="M11 11h14v14H11z"/>
        <path fill-rule="evenodd" clip-rule="evenodd" d="M19.25 13.5a.5.5 0 0 0-.5-.5h-1.5a.5.5 0 0 0-.5.5v2.75a.5.5 0 0 1-.5.5H13.5a.5.5 0 0 0-.5.5v1.5a.5.5 0 0 0 .5.5h2.75a.5.5 0 0 1 .5.5v2.75a.5.5 0 0 0 .5.5h1.5a.5.5 0 0 0 .5-.5v-2.75a.5.5 0 0 1 .5-.5h2.75a.5.5 0 0 0 .5-.5v-1.5a.5.5 0 0 0-.5-.5h-2.75a.5.5 0 0 1-.5-.5V13.5z"/>
    </mask>
    <path fill-rule="evenodd" clip-rule="evenodd" d="M19.25 13.5a.5.5 0 0 0-.5-.5h-1.5a.5.5 0 0 0-.5.5v2.75a.5.5 0 0 1-.5.5H13.5a.5.5 0 0 0-.5.5v1.5a.5.5 0 0 0 .5.5h2.75a.5.5 0 0 1 .5.5v2.75a.5.5 0 0 0 .5.5h1.5a.5.5 0 0 0 .5-.5v-2.75a.5.5 0 0 1 .5-.5h2.75a.5.5 0 0 0 .5-.5v-1.5a.5.5 0 0 0-.5-.5h-2.75a.5.5 0 0 1-.5-.5V13.5z" fill="url(#7d2cixbhmb)"/>
    <path d="M22.5 16.75v2-2zm-9 0v2-2zM17.25 15h1.5v-4h-1.5v4zm1.5 1.25V13.5h-4v2.75h4zm-5.25 2.5h2.75v-4H13.5v4zm1.5 0v-1.5h-4v1.5h4zm1.25-1.5H13.5v4h2.75v-4zm2.5 5.25v-2.75h-4v2.75h4zm0-1.5h-1.5v4h1.5v-4zm-1.5-1.25v2.75h4v-2.75h-4zm5.25-2.5h-2.75v4h2.75v-4zm-1.5 0v1.5h4v-1.5h-4zm-1.25 1.5h2.75v-4h-2.75v4zm-2.5-5.25v2.75h4V13.5h-4zm2.5 1.25a1.5 1.5 0 0 1 1.5 1.5h-4a2.5 2.5 0 0 0 2.5 2.5v-4zm5.25 2.5a2.5 2.5 0 0 0-2.5-2.5v4a1.5 1.5 0 0 1-1.5-1.5h4zm-2.5 4a2.5 2.5 0 0 0 2.5-2.5h-4a1.5 1.5 0 0 1 1.5-1.5v4zm-1.25-1.5a1.5 1.5 0 0 1-1.5 1.5v-4a2.5 2.5 0 0 0-2.5 2.5h4zM18.75 25a2.5 2.5 0 0 0 2.5-2.5h-4a1.5 1.5 0 0 1 1.5-1.5v4zm-4-2.5a2.5 2.5 0 0 0 2.5 2.5v-4a1.5 1.5 0 0 1 1.5 1.5h-4zm1.5-1.25a1.5 1.5 0 0 1-1.5-1.5h4a2.5 2.5 0 0 0-2.5-2.5v4zM11 18.75a2.5 2.5 0 0 0 2.5 2.5v-4a1.5 1.5 0 0 1 1.5 1.5h-4zm2.5-4a2.5 2.5 0 0 0-2.5 2.5h4a1.5 1.5 0 0 1-1.5 1.5v-4zm1.25 1.5a1.5 1.5 0 0 1 1.5-1.5v4a2.5 2.5 0 0 0 2.5-2.5h-4zm4-1.25a1.5 1.5 0 0 1-1.5-1.5h4a2.5 2.5 0 0 0-2.5-2.5v4zm-1.5-4a2.5 2.5 0 0 0-2.5 2.5h4a1.5 1.5 0 0 1-1.5 1.5v-4z" fill="#F2F4F6" mask="url(#64xlg10q8c)"/>
    <defs>
        <linearGradient id="mcanrprlfa" x1="8" y1="3" x2="18.5" y2="28" gradientUnits="userSpaceOnUse">
            <stop stop-color="#6F747D"/>
            <stop offset="1" stop-color="#D2D4D9"/>
        </linearGradient>
        <linearGradient id="7d2cixbhmb" x1="16.684" y1="13.526" x2="21.617" y2="27.229" gradientUnits="userSpaceOnUse">
            <stop stop-color="#6F747D"/>
            <stop offset="1" stop-color="#D2D4D9"/>
        </linearGradient>
    </defs>
</svg>
