<svg width="24" height="24" viewBox="0 0 24 24" fill="none" xmlns="http://www.w3.org/2000/svg">
    <path fill-rule="evenodd" clip-rule="evenodd" d="M19.99 15.332a6 6 0 0 0-11.76-1.987A4.5 4.5 0 1 0 6.5 22h12.001a3.5 3.5 0 0 0 1.49-6.668z" fill="#fff" fill-opacity=".3"/>
    <path fill-rule="evenodd" clip-rule="evenodd" d="M12.889 2.237c.024.02.046.04.068.063l4.235 4.236a1 1 0 0 1-1.414 1.414l-2.535-2.536V15a1 1 0 1 1-2 0V5.414L8.707 7.95a1 1 0 1 1-1.414-1.414l4.237-4.237a.998.998 0 0 1 1.359-.062z" fill="#fff"/>
</svg>
