<svg width="24" height="24" viewBox="0 0 24 24" fill="none" xmlns="http://www.w3.org/2000/svg">
    <path fill-rule="evenodd" clip-rule="evenodd" d="M16 6H4v12h12V6zM4 4a2 2 0 0 0-2 2v12a2 2 0 0 0 2 2h12a2 2 0 0 0 2-2v-3l2.553 1.276A1 1 0 0 0 22 15.382V8.618a1 1 0 0 0-1.447-.894L18 9V6a2 2 0 0 0-2-2H4zm9.039 8.842c.615-.374.615-1.31 0-1.684L8.885 8.632c-.616-.375-1.385.093-1.385.842v5.052c0 .749.77 1.216 1.385.842l4.154-2.526z" fill="url(#qph1zhug8a)"/>
    <defs>
        <linearGradient id="qph1zhug8a" x1="2" y1="3.5" x2="17" y2="30" gradientUnits="userSpaceOnUse">
            <stop stop-color="#6F747D"/>
            <stop offset="1" stop-color="#D2D4D9"/>
        </linearGradient>
    </defs>
</svg>
