<svg width="16" height="16" viewBox="0 0 16 16" fill="none" xmlns="http://www.w3.org/2000/svg">
    <mask id="klabst9cja" fill="#fff">
        <path d="M14 2a1 1 0 0 1 1 1v10a1 1 0 0 1-1 1H2a1 1 0 0 1-1-1V3a1 1 0 0 1 1-1h12z"/>
    </mask>
    <path d="M14 2V0v2zm1 1h2-2zm-1 11v2-2zM2 14v2-2zm-1-1h-2 2zM2 2V0v2zm12 0v2a1 1 0 0 1-1-1h4a3 3 0 0 0-3-3v2zm1 1h-2v10h4V3h-2zm0 10h-2a1 1 0 0 1 1-1v4a3 3 0 0 0 3-3h-2zm-1 1v-2H2v4h12v-2zM2 14v-2a1 1 0 0 1 1 1h-4a3 3 0 0 0 3 3v-2zm-1-1h2V3h-4v10h2zM1 3h2a1 1 0 0 1-1 1V0a3 3 0 0 0-3 3h2zm1-1v2h12V0H2v2z" fill="#6F747D" mask="url(#klabst9cja)"/>
    <path d="m2 3 6 5 6-5" stroke="#6F747D" stroke-width="2" stroke-linecap="round" stroke-linejoin="round"/>
</svg>
