<svg width="24" height="24" viewBox="0 0 24 24" fill="none" xmlns="http://www.w3.org/2000/svg">
    <path d="M14 9a6 6 0 0 1 5.99 6.332A3.5 3.5 0 0 1 18.5 22h-12a4.5 4.5 0 1 1 1.732-8.654A6.001 6.001 0 0 1 14 9z" fill="#fff" fill-opacity=".3"/>
    <path d="M17.192 6.535a1.001 1.001 0 0 1-1.414 1.415l-2.536-2.537V15a1 1 0 1 1-2 0V5.415L8.707 7.95a1 1 0 0 1-1.414-1.415l4.242-4.242a.999.999 0 0 1 .103-.088l.027-.02c.034-.024.068-.046.105-.066l.007-.005.041-.02a.984.984 0 0 1 .133-.051l.007-.002.02-.005a.995.995 0 0 1 .098-.021l.041-.007a1.01 1.01 0 0 1 .252 0l.041.007c.034.005.066.012.099.021l.018.005.008.002a.996.996 0 0 1 .415.25l4.242 4.242z" fill="#fff"/>
</svg>
