<svg width="24" height="24" viewBox="0 0 24 24" fill="none" xmlns="http://www.w3.org/2000/svg">
    <mask id="rzc14qmi7b" fill="#fff">
        <path d="M21 4a1 1 0 0 1 1 1v14a1 1 0 0 1-1 1H3a1 1 0 0 1-1-1V5a1 1 0 0 1 1-1h18z"/>
    </mask>
    <path d="M21 4V2v2zm0 16v2-2zM3 20v2-2zM3 4V2v2zm18 0v2a1 1 0 0 1-1-1h4a3 3 0 0 0-3-3v2zm1 1h-2v14h4V5h-2zm0 14h-2a1 1 0 0 1 1-1v4a3 3 0 0 0 3-3h-2zm-1 1v-2H3v4h18v-2zM3 20v-2a1 1 0 0 1 1 1H0a3 3 0 0 0 3 3v-2zm-1-1h2V5H0v14h2zM2 5h2a1 1 0 0 1-1 1V2a3 3 0 0 0-3 3h2zm1-1v2h18V2H3v2z" fill="url(#l3jiqfaeda)" mask="url(#rzc14qmi7b)"/>
    <path d="m3 5.5 9 6.5 9-6.5" stroke="url(#l49nv08l6c)" stroke-width="2"/>
    <defs>
        <linearGradient id="l3jiqfaeda" x1="12" y1="6.5" x2="15.5" y2="24.5" gradientUnits="userSpaceOnUse">
            <stop stop-color="#6F747D"/>
            <stop offset="1" stop-color="#D2D4D9"/>
        </linearGradient>
        <linearGradient id="l49nv08l6c" x1="12" y1="5.5" x2="13" y2="12" gradientUnits="userSpaceOnUse">
            <stop stop-color="#6F747D"/>
            <stop offset="1" stop-color="#969AA1"/>
        </linearGradient>
    </defs>
</svg>
