<svg width="24" height="24" viewBox="0 0 24 24" fill="none" xmlns="http://www.w3.org/2000/svg">
    <path d="M12.066 4V3v1zm9.068 6.934h1-1zm-9.068 6.932v1-1zm-1.22-.064.102-.995a1 1 0 0 0-.462.062l.36.933zM5.134 20l-.848-.53a1 1 0 0 0 1.207 1.463L5.133 20zm2.023-3.24.848.53a1 1 0 0 0-.405-1.426l-.443.897zM3 10.935H2h1zM12.066 4v1c2.304 0 4.353.715 5.804 1.825 1.451 1.11 2.264 2.571 2.264 4.109h2c0-2.292-1.218-4.297-3.049-5.698C17.255 3.837 14.77 3 12.066 3v1zm9.068 6.934h-1c0 1.537-.813 2.998-2.264 4.107-1.451 1.11-3.5 1.825-5.804 1.825v2c2.704 0 5.189-.837 7.02-2.236 1.83-1.4 3.048-3.405 3.048-5.696h-1zm-9.068 6.932v-1c-.376 0-.75-.021-1.118-.059l-.102.995-.103.995c.43.044.872.07 1.323.07v-1zm-1.22-.064-.36-.933-5.711 2.198.359.933.359.933 5.712-2.198-.36-.933zM5.134 20l.848.53 2.023-3.24-.848-.53-.848-.529-2.023 3.24.848.529zm2.023-3.24.443-.896c-2.27-1.12-3.6-2.975-3.6-4.93H2c0 2.934 1.983 5.375 4.715 6.723l.442-.896zM3 10.935h1c0-1.538.812-3 2.263-4.109C7.714 5.715 9.763 5 12.066 5V3c-2.703 0-5.188.837-7.018 2.237C3.218 6.637 2 8.642 2 10.934h1z" fill="url(#b6jeht5nna)"/>
    <defs>
        <linearGradient id="b6jeht5nna" x1="12.067" y1="4" x2="12.067" y2="20" gradientUnits="userSpaceOnUse">
            <stop stop-color="#6F747D"/>
            <stop offset="1" stop-color="#B9BCC2"/>
        </linearGradient>
    </defs>
</svg>
