<svg width="16" height="16" viewBox="0 0 16 16" fill="none" xmlns="http://www.w3.org/2000/svg">
    <path d="M1 11a1 1 0 1 1 2 0v2h10v-2a1 1 0 1 1 2 0v3a1 1 0 0 1-.898.995L14 15H2a1 1 0 0 1-1-1v-3z" fill="#fff"/>
    <path d="M4.465 7.879a1 1 0 0 1 1.414-1.414L7 7.587V2a1 1 0 0 1 2 0v5.587l1.122-1.122a1 1 0 1 1 1.414 1.414l-2.829 2.828a.992.992 0 0 1-.103.088l-.026.02a.99.99 0 0 1-.101.064l-.011.007c-.015.008-.031.014-.047.021a.982.982 0 0 1-.127.05l-.007.002-.02.005a1.034 1.034 0 0 1-.098.021c-.014.003-.027.006-.041.007a1.027 1.027 0 0 1-.252 0l-.041-.007a1.033 1.033 0 0 1-.099-.021l-.018-.005-.008-.002a.984.984 0 0 1-.133-.052c-.013-.006-.027-.012-.04-.02a.943.943 0 0 1-.242-.178L4.465 7.879z" fill="#fff"/>
</svg>
