<svg width="24" height="24" viewBox="0 0 24 24" fill="none" xmlns="http://www.w3.org/2000/svg">
    <path d="M16 20a1 1 0 1 1 0 2H8a1 1 0 1 1 0-2h8zm4-17a2 2 0 0 1 2 2v11a2 2 0 0 1-2 2H4a2 2 0 0 1-2-2V5a2 2 0 0 1 2-2h16zM4 16h16V5H4v11z" fill="url(#avpg5zgk8a)"/>
    <defs>
        <linearGradient id="avpg5zgk8a" x1="12" y1="3" x2="12" y2="22" gradientUnits="userSpaceOnUse">
            <stop stop-color="#6F747D"/>
            <stop offset="1" stop-color="#B8BBC1"/>
        </linearGradient>
    </defs>
</svg>
