<svg width="88" height="84" viewBox="0 0 88 84" fill="none" xmlns="http://www.w3.org/2000/svg">
    <g clip-path="url(#62y6v2jwba)">
        <path d="M68.3 20.45H8.415a4 4 0 0 0-4 4v44.554H72.3V24.45a4 4 0 0 0-4-4z" fill="#EDF5FF"/>
        <path d="M72.3 20.45H38.395v48.554H72.3V20.45z" fill="#D7E9FF"/>
        <path d="M46.306 49.975V38.077h-2.552c-8.844 0-16.039-7.195-16.039-16.039C27.715 13.195 34.91 6 43.754 6h28.208C80.805 6 88 13.195 88 22.038c0 8.844-7.195 16.039-16.038 16.039h-10.97L46.308 49.975z" fill="#6598EA"/>
        <path d="M71.962 6H57.717l.004 34.728 3.271-2.651h10.97C80.805 38.077 88 30.882 88 22.038 88 13.195 80.805 6 71.962 6z" fill="#326ED3"/>
        <path d="M48.45 24.84c1.35 0 2.644-1.188 2.582-2.582-.063-1.4-1.135-2.583-2.582-2.583-1.351 0-2.645 1.188-2.583 2.582.063 1.4 1.135 2.583 2.583 2.583z" fill="#F3C86A"/>
        <path d="M66.544 24.868c1.35 0 2.644-1.187 2.582-2.582-.063-1.399-1.135-2.582-2.582-2.582-1.35 0-2.645 1.188-2.582 2.582.062 1.4 1.134 2.582 2.582 2.582z" fill="#FDAB29"/>
        <path d="M64.659 78.843H11.945C5.358 78.843 0 74.533 0 69.235v-2.077h76.604v2.077c0 5.298-5.359 9.608-11.945 9.608z" fill="#326ED3"/>
        <path d="M38.395 67.158v11.684h26.264c6.586 0 11.945-4.31 11.945-9.607v-2.077h-38.21z" fill="#0841A3"/>
        <path d="M57.717 24.84c1.351 0 2.645-1.188 2.583-2.582-.063-1.4-1.135-2.583-2.583-2.583-1.35 0-2.644 1.188-2.582 2.582.063 1.4 1.135 2.583 2.582 2.583z" fill="#F3C86A"/>
        <path d="M57.717 24.84c1.35 0 2.645-1.188 2.582-2.582-.062-1.4-1.134-2.583-2.582-2.583v5.165z" fill="#FDAB29"/>
    </g>
    <defs>
        <clipPath id="62y6v2jwba">
            <path fill="#fff" d="M0 0h88v84H0z"/>
        </clipPath>
    </defs>
</svg>
